<?xml version="1.0" standalone="no"?>
<!DOCTYPE svg PUBLIC "-//W3C//DTD SVG 20010904//EN"
        "http://www.w3.org/TR/2001/REC-SVG-20010904/DTD/svg10.dtd">
<svg version="1.0" xmlns="http://www.w3.org/2000/svg"
     width="448.000000pt" height="448.000000pt" viewBox="0 0 448.000000 448.000000"
     preserveAspectRatio="xMidYMid meet">

    <g transform="translate(0.000000,448.000000) scale(0.100000,-0.100000)"
       fill="#000000" stroke="none">
        <path d="M0 2240 l0 -2240 2240 0 2240 0 0 2240 0 2240 -2240 0 -2240 0 0
-2240z m2260 1673 c0 -6 36 -177 140 -671 21 -101 40 -185 42 -186 10 -7 464
-358 518 -401 64 -50 644 -502 744 -579 28 -22 85 -67 128 -100 42 -34 109
-87 150 -118 40 -32 82 -65 93 -74 11 -8 -32 11 -95 44 -63 33 -226 112 -362
176 -298 140 -707 332 -838 393 -184 87 -262 123 -269 123 -4 0 -15 -64 -24
-142 -10 -79 -29 -222 -42 -318 -13 -96 -52 -380 -85 -630 -33 -250 -67 -500
-75 -555 -7 -55 -19 -142 -26 -193 -6 -51 -13 -91 -15 -90 -3 4 -59 482 -144
1238 -89 786 -76 702 -103 694 -12 -4 -137 -60 -277 -126 -140 -66 -293 -138
-340 -160 -47 -22 -112 -53 -145 -68 -33 -15 -105 -49 -160 -75 -132 -62 -557
-246 -560 -243 -1 2 110 91 248 198 137 107 282 221 321 252 39 32 132 106
206 164 74 59 180 142 235 185 55 43 143 112 197 151 53 40 149 113 215 162
65 50 120 91 122 92 2 2 23 99 47 216 78 382 138 648 146 648 4 0 8 -3 8 -7z
m1829 -1143 c-71 -442 -132 -806 -134 -808 -5 -6 4 -13 -158 118 -89 72 -126
108 -123 119 3 9 14 66 25 128 11 61 29 149 40 195 11 46 34 157 51 248 17 91
34 174 37 185 11 41 -17 -5 -169 -270 -86 -148 -164 -285 -175 -302 l-20 -33
-54 43 c-30 23 -75 59 -99 79 l-43 37 21 53 c11 29 64 152 117 273 53 121 104
238 112 261 15 38 37 54 357 261 188 122 342 220 343 219 1 -1 -57 -363 -128
-806z m-3449 533 c157 -98 297 -187 312 -199 19 -15 52 -83 121 -255 53 -129
107 -260 121 -292 14 -32 26 -59 26 -61 0 -6 -192 -166 -200 -166 -6 0 -127
213 -139 245 -10 26 -164 305 -168 305 -3 0 -3 -15 1 -32 10 -51 98 -608 102
-653 5 -39 4 -41 -68 -95 -39 -30 -99 -79 -132 -109 l-61 -53 -8 28 c-4 16
-46 317 -93 669 -46 352 -91 687 -99 744 -18 122 -17 113 -7 108 4 -3 135 -85
292 -184z m2659 -240 c0 -5 -21 -75 -47 -157 l-47 -149 -76 -41 -76 -40 -82
68 c-47 39 -78 73 -73 78 12 12 386 247 395 247 4 1 7 -2 6 -6z m-1956 -113
c62 -22 154 -55 205 -73 l92 -33 -41 -33 -41 -34 -89 36 c-49 19 -89 32 -89
29 0 -4 12 -42 26 -85 l26 -79 -33 -34 -33 -34 -22 42 c-24 47 -124 312 -124
328 0 14 0 14 123 -30z m1457 -15 c0 -24 -5 -35 -14 -35 -24 0 -28 18 -10 45
21 33 24 32 24 -10z m-54 -686 l30 -14 -39 -122 -39 -122 -56 35 c-32 20 -59
38 -61 40 -3 3 26 186 35 216 5 16 8 16 52 -1 26 -10 61 -25 78 -32z m-845
-72 l27 -108 -117 -104 -116 -104 -12 47 c-24 100 -23 102 78 162 90 55 90 55
85 90 -3 19 -6 42 -6 51 0 11 -15 21 -47 29 l-48 12 45 19 c77 31 80 28 111
-94z m-462 -221 c34 -82 61 -150 61 -151 0 -6 -129 -95 -137 -95 -5 0 -35 48
-66 108 -32 59 -71 132 -87 162 l-30 54 98 37 c53 20 98 36 98 36 1 -1 29 -69
63 -151z m1738 124 c112 -43 109 -40 80 -91 -102 -180 -139 -245 -147 -253 -5
-5 -35 13 -72 45 -35 29 -64 54 -66 55 -1 0 15 41 37 90 21 49 48 110 59 137
12 26 23 47 26 47 2 0 40 -14 83 -30z m-2302 -233 c4 -28 20 -135 36 -236 17
-101 26 -188 22 -192 -4 -4 -71 -57 -148 -117 l-140 -109 -3 36 c-1 20 -16
133 -32 251 -16 118 -32 238 -36 266 l-6 50 143 56 c79 31 147 54 151 52 3 -2
9 -28 13 -57z m2908 -4 c78 -31 143 -57 144 -58 2 -1 -20 -136 -47 -301 -27
-164 -50 -310 -52 -323 -3 -22 -17 -12 -153 105 -112 97 -149 135 -147 149 2
11 12 65 22 120 10 55 28 154 40 220 26 144 26 145 40 145 6 0 75 -25 153 -57z"/>
    </g>
</svg>
